<svg width="16" height="16" viewBox="0 0 16 16" fill="none" xmlns="http://www.w3.org/2000/svg">
<path d="M3.99995 8.80001C3.78778 8.80001 3.5843 8.71573 3.43427 8.5657C3.28424 8.41567 3.19995 8.21219 3.19995 8.00001C3.19995 7.78784 3.28424 7.58436 3.43427 7.43433C3.5843 7.2843 3.78778 7.20001 3.99995 7.20001H12C12.2121 7.20001 12.4156 7.2843 12.5656 7.43433C12.7157 7.58436 12.8 7.78784 12.8 8.00001C12.8 8.21219 12.7157 8.41567 12.5656 8.5657C12.4156 8.71573 12.2121 8.80001 12 8.80001H3.99995Z" fill="black"/>
<path d="M7.19995 4.00001C7.19995 3.78784 7.28424 3.58436 7.43427 3.43433C7.5843 3.2843 7.78778 3.20001 7.99995 3.20001C8.21212 3.20001 8.41561 3.2843 8.56564 3.43433C8.71567 3.58436 8.79995 3.78784 8.79995 4.00001V12C8.79995 12.2122 8.71567 12.4157 8.56564 12.5657C8.41561 12.7157 8.21212 12.8 7.99995 12.8C7.78778 12.8 7.5843 12.7157 7.43427 12.5657C7.28424 12.4157 7.19995 12.2122 7.19995 12V4.00001Z" fill="black"/>
</svg>
