<svg width="424" height="86" viewBox="0 0 424 86" fill="none" xmlns="http://www.w3.org/2000/svg">
<g id="CTA">
<rect width="424" height="86" fill="#ECECEC"/>
<g id="CTA text">
<path id="Ullamcorper quis quis pretium" d="M29.328 30.424V33.952C29.328 34.448 29.448 34.816 29.688 35.056C29.9333 35.296 30.272 35.416 30.704 35.416C31.1307 35.416 31.464 35.296 31.704 35.056C31.9493 34.816 32.072 34.448 32.072 33.952V30.424H32.8V33.944C32.8 34.408 32.7067 34.8 32.52 35.12C32.3333 35.4347 32.08 35.6693 31.76 35.824C31.4453 35.9787 31.0907 36.056 30.696 36.056C30.3013 36.056 29.944 35.9787 29.624 35.824C29.3093 35.6693 29.0587 35.4347 28.872 35.12C28.6907 34.8 28.6 34.408 28.6 33.944V30.424H29.328ZM34.7424 30.08V36H34.0144V30.08H34.7424ZM36.7112 30.08V36H35.9832V30.08H36.7112ZM37.6799 33.792C37.6799 33.344 37.7706 32.952 37.9519 32.616C38.1333 32.2747 38.3813 32.0107 38.6959 31.824C39.0159 31.6373 39.3706 31.544 39.7599 31.544C40.1439 31.544 40.4773 31.6267 40.7599 31.792C41.0426 31.9573 41.2533 32.1653 41.3919 32.416V31.616H42.1279V36H41.3919V35.184C41.2479 35.44 41.0319 35.6533 40.7439 35.824C40.4613 35.9893 40.1306 36.072 39.7519 36.072C39.3626 36.072 39.0106 35.976 38.6959 35.784C38.3813 35.592 38.1333 35.3227 37.9519 34.976C37.7706 34.6293 37.6799 34.2347 37.6799 33.792ZM41.3919 33.8C41.3919 33.4693 41.3253 33.1813 41.1919 32.936C41.0586 32.6907 40.8773 32.504 40.6479 32.376C40.4239 32.2427 40.1759 32.176 39.9039 32.176C39.6319 32.176 39.3839 32.24 39.1599 32.368C38.9359 32.496 38.7573 32.6827 38.6239 32.928C38.4906 33.1733 38.4239 33.4613 38.4239 33.792C38.4239 34.128 38.4906 34.4213 38.6239 34.672C38.7573 34.9173 38.9359 35.1067 39.1599 35.24C39.3839 35.368 39.6319 35.432 39.9039 35.432C40.1759 35.432 40.4239 35.368 40.6479 35.24C40.8773 35.1067 41.0586 34.9173 41.1919 34.672C41.3253 34.4213 41.3919 34.1307 41.3919 33.8ZM48.6302 31.536C48.9715 31.536 49.2755 31.608 49.5422 31.752C49.8089 31.8907 50.0195 32.1013 50.1742 32.384C50.3289 32.6667 50.4062 33.0107 50.4062 33.416V36H49.6862V33.52C49.6862 33.0827 49.5769 32.7493 49.3582 32.52C49.1449 32.2853 48.8542 32.168 48.4862 32.168C48.1075 32.168 47.8062 32.2907 47.5822 32.536C47.3582 32.776 47.2462 33.1253 47.2462 33.584V36H46.5262V33.52C46.5262 33.0827 46.4169 32.7493 46.1982 32.52C45.9849 32.2853 45.6942 32.168 45.3262 32.168C44.9475 32.168 44.6462 32.2907 44.4222 32.536C44.1982 32.776 44.0862 33.1253 44.0862 33.584V36H43.3582V31.616H44.0862V32.248C44.2302 32.0187 44.4222 31.8427 44.6622 31.72C44.9075 31.5973 45.1769 31.536 45.4702 31.536C45.8382 31.536 46.1635 31.6187 46.4462 31.784C46.7289 31.9493 46.9395 32.192 47.0782 32.512C47.2009 32.2027 47.4035 31.9627 47.6862 31.792C47.9689 31.6213 48.2835 31.536 48.6302 31.536ZM51.3284 33.8C51.3284 33.3467 51.419 32.952 51.6004 32.616C51.7817 32.2747 52.0324 32.0107 52.3524 31.824C52.6777 31.6373 53.0484 31.544 53.4644 31.544C54.003 31.544 54.4457 31.6747 54.7924 31.936C55.1444 32.1973 55.3764 32.56 55.4884 33.024H54.7044C54.6297 32.7573 54.483 32.5467 54.2644 32.392C54.051 32.2373 53.7844 32.16 53.4644 32.16C53.0484 32.16 52.7124 32.304 52.4564 32.592C52.2004 32.8747 52.0724 33.2773 52.0724 33.8C52.0724 34.328 52.2004 34.736 52.4564 35.024C52.7124 35.312 53.0484 35.456 53.4644 35.456C53.7844 35.456 54.051 35.3813 54.2644 35.232C54.4777 35.0827 54.6244 34.8693 54.7044 34.592H55.4884C55.371 35.04 55.1364 35.4 54.7844 35.672C54.4324 35.9387 53.9924 36.072 53.4644 36.072C53.0484 36.072 52.6777 35.9787 52.3524 35.792C52.0324 35.6053 51.7817 35.3413 51.6004 35C51.419 34.6587 51.3284 34.2587 51.3284 33.8ZM58.3718 36.072C57.9611 36.072 57.5878 35.9787 57.2518 35.792C56.9211 35.6053 56.6598 35.3413 56.4678 35C56.2811 34.6533 56.1878 34.2533 56.1878 33.8C56.1878 33.352 56.2838 32.9573 56.4758 32.616C56.6731 32.2693 56.9398 32.0053 57.2758 31.824C57.6118 31.6373 57.9878 31.544 58.4038 31.544C58.8198 31.544 59.1958 31.6373 59.5318 31.824C59.8678 32.0053 60.1318 32.2667 60.3238 32.608C60.5211 32.9493 60.6198 33.3467 60.6198 33.8C60.6198 34.2533 60.5184 34.6533 60.3158 35C60.1184 35.3413 59.8491 35.6053 59.5078 35.792C59.1664 35.9787 58.7878 36.072 58.3718 36.072ZM58.3718 35.432C58.6331 35.432 58.8784 35.3707 59.1078 35.248C59.3371 35.1253 59.5211 34.9413 59.6598 34.696C59.8038 34.4507 59.8758 34.152 59.8758 33.8C59.8758 33.448 59.8064 33.1493 59.6678 32.904C59.5291 32.6587 59.3478 32.4773 59.1238 32.36C58.8998 32.2373 58.6571 32.176 58.3958 32.176C58.1291 32.176 57.8838 32.2373 57.6598 32.36C57.4411 32.4773 57.2651 32.6587 57.1318 32.904C56.9984 33.1493 56.9318 33.448 56.9318 33.8C56.9318 34.1573 56.9958 34.4587 57.1238 34.704C57.2571 34.9493 57.4331 35.1333 57.6518 35.256C57.8704 35.3733 58.1104 35.432 58.3718 35.432ZM62.3049 32.328C62.4329 32.0773 62.6143 31.8827 62.8489 31.744C63.0889 31.6053 63.3796 31.536 63.7209 31.536V32.288H63.5289C62.7129 32.288 62.3049 32.7307 62.3049 33.616V36H61.5769V31.616H62.3049V32.328ZM65.2893 32.424C65.4333 32.1733 65.6466 31.9653 65.9293 31.8C66.2173 31.6293 66.5506 31.544 66.9293 31.544C67.3186 31.544 67.6706 31.6373 67.9853 31.824C68.3053 32.0107 68.556 32.2747 68.7373 32.616C68.9186 32.952 69.0093 33.344 69.0093 33.792C69.0093 34.2347 68.9186 34.6293 68.7373 34.976C68.556 35.3227 68.3053 35.592 67.9853 35.784C67.6706 35.976 67.3186 36.072 66.9293 36.072C66.556 36.072 66.2253 35.9893 65.9373 35.824C65.6546 35.6533 65.4386 35.4427 65.2893 35.192V38.08H64.5613V31.616H65.2893V32.424ZM68.2653 33.792C68.2653 33.4613 68.1986 33.1733 68.0653 32.928C67.932 32.6827 67.7506 32.496 67.5213 32.368C67.2973 32.24 67.0493 32.176 66.7773 32.176C66.5106 32.176 66.2626 32.2427 66.0333 32.376C65.8093 32.504 65.628 32.6933 65.4893 32.944C65.356 33.1893 65.2893 33.4747 65.2893 33.8C65.2893 34.1307 65.356 34.4213 65.4893 34.672C65.628 34.9173 65.8093 35.1067 66.0333 35.24C66.2626 35.368 66.5106 35.432 66.7773 35.432C67.0493 35.432 67.2973 35.368 67.5213 35.24C67.7506 35.1067 67.932 34.9173 68.0653 34.672C68.1986 34.4213 68.2653 34.128 68.2653 33.792ZM73.9676 33.64C73.9676 33.7787 73.9596 33.9253 73.9436 34.08H70.4396C70.4662 34.512 70.6129 34.8507 70.8796 35.096C71.1516 35.336 71.4796 35.456 71.8636 35.456C72.1782 35.456 72.4396 35.384 72.6476 35.24C72.8609 35.0907 73.0102 34.8933 73.0956 34.648H73.8796C73.7622 35.0693 73.5276 35.4133 73.1756 35.68C72.8236 35.9413 72.3862 36.072 71.8636 36.072C71.4476 36.072 71.0742 35.9787 70.7436 35.792C70.4182 35.6053 70.1622 35.3413 69.9756 35C69.7889 34.6533 69.6956 34.2533 69.6956 33.8C69.6956 33.3467 69.7862 32.9493 69.9676 32.608C70.1489 32.2667 70.4022 32.0053 70.7276 31.824C71.0582 31.6373 71.4369 31.544 71.8636 31.544C72.2796 31.544 72.6476 31.6347 72.9676 31.816C73.2876 31.9973 73.5329 32.248 73.7036 32.568C73.8796 32.8827 73.9676 33.24 73.9676 33.64ZM73.2156 33.488C73.2156 33.2107 73.1542 32.9733 73.0316 32.776C72.9089 32.5733 72.7409 32.4213 72.5276 32.32C72.3196 32.2133 72.0876 32.16 71.8316 32.16C71.4636 32.16 71.1489 32.2773 70.8876 32.512C70.6316 32.7467 70.4849 33.072 70.4476 33.488H73.2156ZM75.6565 32.328C75.7845 32.0773 75.9658 31.8827 76.2005 31.744C76.4405 31.6053 76.7312 31.536 77.0725 31.536V32.288H76.8805C76.0645 32.288 75.6565 32.7307 75.6565 33.616V36H74.9285V31.616H75.6565V32.328ZM79.7737 33.792C79.7737 33.344 79.8644 32.952 80.0457 32.616C80.227 32.2747 80.475 32.0107 80.7897 31.824C81.1097 31.6373 81.467 31.544 81.8617 31.544C82.2404 31.544 82.571 31.6293 82.8537 31.8C83.1417 31.9653 83.3524 32.1707 83.4857 32.416V31.616H84.2217V38.08H83.4857V35.192C83.347 35.4373 83.1337 35.6453 82.8457 35.816C82.5577 35.9867 82.2217 36.072 81.8377 36.072C81.4537 36.072 81.1044 35.976 80.7897 35.784C80.475 35.592 80.227 35.3227 80.0457 34.976C79.8644 34.6293 79.7737 34.2347 79.7737 33.792ZM83.4857 33.8C83.4857 33.4693 83.419 33.1813 83.2857 32.936C83.1524 32.6907 82.971 32.504 82.7417 32.376C82.5177 32.2427 82.2697 32.176 81.9977 32.176C81.7257 32.176 81.4777 32.24 81.2537 32.368C81.0297 32.496 80.851 32.6827 80.7177 32.928C80.5844 33.1733 80.5177 33.4613 80.5177 33.792C80.5177 34.128 80.5844 34.4213 80.7177 34.672C80.851 34.9173 81.0297 35.1067 81.2537 35.24C81.4777 35.368 81.7257 35.432 81.9977 35.432C82.2697 35.432 82.5177 35.368 82.7417 35.24C82.971 35.1067 83.1524 34.9173 83.2857 34.672C83.419 34.4213 83.4857 34.1307 83.4857 33.8ZM89.3399 31.616V36H88.6119V35.352C88.4733 35.576 88.2786 35.752 88.0279 35.88C87.7826 36.0027 87.5106 36.064 87.2119 36.064C86.8706 36.064 86.5639 35.9947 86.2919 35.856C86.0199 35.712 85.8039 35.4987 85.6439 35.216C85.4893 34.9333 85.4119 34.5893 85.4119 34.184V31.616H86.1319V34.088C86.1319 34.52 86.2413 34.8533 86.4599 35.088C86.6786 35.3173 86.9773 35.432 87.3559 35.432C87.7453 35.432 88.0519 35.312 88.2759 35.072C88.4999 34.832 88.6119 34.4827 88.6119 34.024V31.616H89.3399ZM90.9451 30.904C90.8065 30.904 90.6891 30.856 90.5931 30.76C90.4971 30.664 90.4491 30.5467 90.4491 30.408C90.4491 30.2693 90.4971 30.152 90.5931 30.056C90.6891 29.96 90.8065 29.912 90.9451 29.912C91.0785 29.912 91.1905 29.96 91.2811 30.056C91.3771 30.152 91.4251 30.2693 91.4251 30.408C91.4251 30.5467 91.3771 30.664 91.2811 30.76C91.1905 30.856 91.0785 30.904 90.9451 30.904ZM91.2971 31.616V36H90.5691V31.616H91.2971ZM94.0899 36.072C93.7539 36.072 93.4525 36.016 93.1859 35.904C92.9192 35.7867 92.7085 35.6267 92.5539 35.424C92.3992 35.216 92.3139 34.9787 92.2979 34.712H93.0499C93.0712 34.9307 93.1725 35.1093 93.3539 35.248C93.5405 35.3867 93.7832 35.456 94.0819 35.456C94.3592 35.456 94.5779 35.3947 94.7379 35.272C94.8979 35.1493 94.9779 34.9947 94.9779 34.808C94.9779 34.616 94.8925 34.4747 94.7219 34.384C94.5512 34.288 94.2872 34.1947 93.9299 34.104C93.6045 34.0187 93.3379 33.9333 93.1299 33.848C92.9272 33.7573 92.7512 33.6267 92.6019 33.456C92.4579 33.28 92.3859 33.0507 92.3859 32.768C92.3859 32.544 92.4525 32.3387 92.5859 32.152C92.7192 31.9653 92.9085 31.8187 93.1539 31.712C93.3992 31.6 93.6792 31.544 93.9939 31.544C94.4792 31.544 94.8712 31.6667 95.1699 31.912C95.4685 32.1573 95.6285 32.4933 95.6499 32.92H94.9219C94.9059 32.6907 94.8125 32.5067 94.6419 32.368C94.4765 32.2293 94.2525 32.16 93.9699 32.16C93.7085 32.16 93.5005 32.216 93.3459 32.328C93.1912 32.44 93.1139 32.5867 93.1139 32.768C93.1139 32.912 93.1592 33.032 93.2499 33.128C93.3459 33.2187 93.4632 33.2933 93.6019 33.352C93.7459 33.4053 93.9432 33.4667 94.1939 33.536C94.5085 33.6213 94.7645 33.7067 94.9619 33.792C95.1592 33.872 95.3272 33.9947 95.4659 34.16C95.6099 34.3253 95.6845 34.5413 95.6899 34.808C95.6899 35.048 95.6232 35.264 95.4899 35.456C95.3565 35.648 95.1672 35.8 94.9219 35.912C94.6819 36.0187 94.4045 36.072 94.0899 36.072ZM98.5784 33.792C98.5784 33.344 98.669 32.952 98.8504 32.616C99.0317 32.2747 99.2797 32.0107 99.5944 31.824C99.9144 31.6373 100.272 31.544 100.666 31.544C101.045 31.544 101.376 31.6293 101.658 31.8C101.946 31.9653 102.157 32.1707 102.29 32.416V31.616H103.026V38.08H102.29V35.192C102.152 35.4373 101.938 35.6453 101.65 35.816C101.362 35.9867 101.026 36.072 100.642 36.072C100.258 36.072 99.909 35.976 99.5944 35.784C99.2797 35.592 99.0317 35.3227 98.8504 34.976C98.669 34.6293 98.5784 34.2347 98.5784 33.792ZM102.29 33.8C102.29 33.4693 102.224 33.1813 102.09 32.936C101.957 32.6907 101.776 32.504 101.546 32.376C101.322 32.2427 101.074 32.176 100.802 32.176C100.53 32.176 100.282 32.24 100.058 32.368C99.8344 32.496 99.6557 32.6827 99.5224 32.928C99.389 33.1733 99.3224 33.4613 99.3224 33.792C99.3224 34.128 99.389 34.4213 99.5224 34.672C99.6557 34.9173 99.8344 35.1067 100.058 35.24C100.282 35.368 100.53 35.432 100.802 35.432C101.074 35.432 101.322 35.368 101.546 35.24C101.776 35.1067 101.957 34.9173 102.09 34.672C102.224 34.4213 102.29 34.1307 102.29 33.8ZM108.145 31.616V36H107.417V35.352C107.278 35.576 107.083 35.752 106.833 35.88C106.587 36.0027 106.315 36.064 106.017 36.064C105.675 36.064 105.369 35.9947 105.097 35.856C104.825 35.712 104.609 35.4987 104.449 35.216C104.294 34.9333 104.217 34.5893 104.217 34.184V31.616H104.937V34.088C104.937 34.52 105.046 34.8533 105.265 35.088C105.483 35.3173 105.782 35.432 106.161 35.432C106.55 35.432 106.857 35.312 107.081 35.072C107.305 34.832 107.417 34.4827 107.417 34.024V31.616H108.145ZM109.75 30.904C109.611 30.904 109.494 30.856 109.398 30.76C109.302 30.664 109.254 30.5467 109.254 30.408C109.254 30.2693 109.302 30.152 109.398 30.056C109.494 29.96 109.611 29.912 109.75 29.912C109.883 29.912 109.995 29.96 110.086 30.056C110.182 30.152 110.23 30.2693 110.23 30.408C110.23 30.5467 110.182 30.664 110.086 30.76C109.995 30.856 109.883 30.904 109.75 30.904ZM110.102 31.616V36H109.374V31.616H110.102ZM112.895 36.072C112.559 36.072 112.257 36.016 111.991 35.904C111.724 35.7867 111.513 35.6267 111.359 35.424C111.204 35.216 111.119 34.9787 111.103 34.712H111.855C111.876 34.9307 111.977 35.1093 112.159 35.248C112.345 35.3867 112.588 35.456 112.887 35.456C113.164 35.456 113.383 35.3947 113.543 35.272C113.703 35.1493 113.783 34.9947 113.783 34.808C113.783 34.616 113.697 34.4747 113.527 34.384C113.356 34.288 113.092 34.1947 112.735 34.104C112.409 34.0187 112.143 33.9333 111.935 33.848C111.732 33.7573 111.556 33.6267 111.407 33.456C111.263 33.28 111.191 33.0507 111.191 32.768C111.191 32.544 111.257 32.3387 111.391 32.152C111.524 31.9653 111.713 31.8187 111.959 31.712C112.204 31.6 112.484 31.544 112.799 31.544C113.284 31.544 113.676 31.6667 113.975 31.912C114.273 32.1573 114.433 32.4933 114.455 32.92H113.727C113.711 32.6907 113.617 32.5067 113.447 32.368C113.281 32.2293 113.057 32.16 112.775 32.16C112.513 32.16 112.305 32.216 112.151 32.328C111.996 32.44 111.919 32.5867 111.919 32.768C111.919 32.912 111.964 33.032 112.055 33.128C112.151 33.2187 112.268 33.2933 112.407 33.352C112.551 33.4053 112.748 33.4667 112.999 33.536C113.313 33.6213 113.569 33.7067 113.767 33.792C113.964 33.872 114.132 33.9947 114.271 34.16C114.415 34.3253 114.489 34.5413 114.495 34.808C114.495 35.048 114.428 35.264 114.295 35.456C114.161 35.648 113.972 35.8 113.727 35.912C113.487 36.0187 113.209 36.072 112.895 36.072ZM118.383 32.424C118.527 32.1733 118.74 31.9653 119.023 31.8C119.311 31.6293 119.644 31.544 120.023 31.544C120.412 31.544 120.764 31.6373 121.079 31.824C121.399 32.0107 121.65 32.2747 121.831 32.616C122.012 32.952 122.103 33.344 122.103 33.792C122.103 34.2347 122.012 34.6293 121.831 34.976C121.65 35.3227 121.399 35.592 121.079 35.784C120.764 35.976 120.412 36.072 120.023 36.072C119.65 36.072 119.319 35.9893 119.031 35.824C118.748 35.6533 118.532 35.4427 118.383 35.192V38.08H117.655V31.616H118.383V32.424ZM121.359 33.792C121.359 33.4613 121.292 33.1733 121.159 32.928C121.026 32.6827 120.844 32.496 120.615 32.368C120.391 32.24 120.143 32.176 119.871 32.176C119.604 32.176 119.356 32.2427 119.127 32.376C118.903 32.504 118.722 32.6933 118.583 32.944C118.45 33.1893 118.383 33.4747 118.383 33.8C118.383 34.1307 118.45 34.4213 118.583 34.672C118.722 34.9173 118.903 35.1067 119.127 35.24C119.356 35.368 119.604 35.432 119.871 35.432C120.143 35.432 120.391 35.368 120.615 35.24C120.844 35.1067 121.026 34.9173 121.159 34.672C121.292 34.4213 121.359 34.128 121.359 33.792ZM123.789 32.328C123.917 32.0773 124.099 31.8827 124.333 31.744C124.573 31.6053 124.864 31.536 125.205 31.536V32.288H125.013C124.197 32.288 123.789 32.7307 123.789 33.616V36H123.061V31.616H123.789V32.328ZM130.046 33.64C130.046 33.7787 130.038 33.9253 130.022 34.08H126.518C126.544 34.512 126.691 34.8507 126.958 35.096C127.23 35.336 127.558 35.456 127.942 35.456C128.256 35.456 128.518 35.384 128.726 35.24C128.939 35.0907 129.088 34.8933 129.174 34.648H129.958C129.84 35.0693 129.606 35.4133 129.254 35.68C128.902 35.9413 128.464 36.072 127.942 36.072C127.526 36.072 127.152 35.9787 126.822 35.792C126.496 35.6053 126.24 35.3413 126.054 35C125.867 34.6533 125.774 34.2533 125.774 33.8C125.774 33.3467 125.864 32.9493 126.046 32.608C126.227 32.2667 126.48 32.0053 126.806 31.824C127.136 31.6373 127.515 31.544 127.942 31.544C128.358 31.544 128.726 31.6347 129.046 31.816C129.366 31.9973 129.611 32.248 129.782 32.568C129.958 32.8827 130.046 33.24 130.046 33.64ZM129.294 33.488C129.294 33.2107 129.232 32.9733 129.11 32.776C128.987 32.5733 128.819 32.4213 128.606 32.32C128.398 32.2133 128.166 32.16 127.91 32.16C127.542 32.16 127.227 32.2773 126.966 32.512C126.71 32.7467 126.563 33.072 126.526 33.488H129.294ZM131.895 32.216V34.8C131.895 35.0133 131.94 35.1653 132.031 35.256C132.121 35.3413 132.279 35.384 132.503 35.384H133.039V36H132.383C131.977 36 131.673 35.9067 131.471 35.72C131.268 35.5333 131.167 35.2267 131.167 34.8V32.216H130.599V31.616H131.167V30.512H131.895V31.616H133.039V32.216H131.895ZM134.297 30.904C134.158 30.904 134.041 30.856 133.945 30.76C133.849 30.664 133.801 30.5467 133.801 30.408C133.801 30.2693 133.849 30.152 133.945 30.056C134.041 29.96 134.158 29.912 134.297 29.912C134.43 29.912 134.542 29.96 134.633 30.056C134.729 30.152 134.777 30.2693 134.777 30.408C134.777 30.5467 134.729 30.664 134.633 30.76C134.542 30.856 134.43 30.904 134.297 30.904ZM134.649 31.616V36H133.921V31.616H134.649ZM139.777 31.616V36H139.049V35.352C138.911 35.576 138.716 35.752 138.465 35.88C138.22 36.0027 137.948 36.064 137.649 36.064C137.308 36.064 137.001 35.9947 136.729 35.856C136.457 35.712 136.241 35.4987 136.081 35.216C135.927 34.9333 135.849 34.5893 135.849 34.184V31.616H136.569V34.088C136.569 34.52 136.679 34.8533 136.897 35.088C137.116 35.3173 137.415 35.432 137.793 35.432C138.183 35.432 138.489 35.312 138.713 35.072C138.937 34.832 139.049 34.4827 139.049 34.024V31.616H139.777ZM146.279 31.536C146.62 31.536 146.924 31.608 147.191 31.752C147.457 31.8907 147.668 32.1013 147.823 32.384C147.977 32.6667 148.055 33.0107 148.055 33.416V36H147.335V33.52C147.335 33.0827 147.225 32.7493 147.007 32.52C146.793 32.2853 146.503 32.168 146.135 32.168C145.756 32.168 145.455 32.2907 145.231 32.536C145.007 32.776 144.895 33.1253 144.895 33.584V36H144.175V33.52C144.175 33.0827 144.065 32.7493 143.847 32.52C143.633 32.2853 143.343 32.168 142.975 32.168C142.596 32.168 142.295 32.2907 142.071 32.536C141.847 32.776 141.735 33.1253 141.735 33.584V36H141.007V31.616H141.735V32.248C141.879 32.0187 142.071 31.8427 142.311 31.72C142.556 31.5973 142.825 31.536 143.119 31.536C143.487 31.536 143.812 31.6187 144.095 31.784C144.377 31.9493 144.588 32.192 144.727 32.512C144.849 32.2027 145.052 31.9627 145.335 31.792C145.617 31.6213 145.932 31.536 146.279 31.536Z" fill="#747475"/>
<path id="Eget at nec newsletter" d="M30.796 48.22V49.924H33.544V51.508H30.796V53.356H33.904V55H28.744V46.576H33.904V48.22H30.796ZM37.7802 48.208C38.2522 48.208 38.6642 48.304 39.0162 48.496C39.3762 48.688 39.6522 48.94 39.8442 49.252V48.304H41.8962V54.988C41.8962 55.604 41.7722 56.16 41.5242 56.656C41.2842 57.16 40.9122 57.56 40.4082 57.856C39.9122 58.152 39.2922 58.3 38.5482 58.3C37.5562 58.3 36.7522 58.064 36.1362 57.592C35.5202 57.128 35.1682 56.496 35.0802 55.696H37.1082C37.1722 55.952 37.3242 56.152 37.5642 56.296C37.8042 56.448 38.1002 56.524 38.4522 56.524C38.8762 56.524 39.2122 56.4 39.4602 56.152C39.7162 55.912 39.8442 55.524 39.8442 54.988V54.04C39.6442 54.352 39.3682 54.608 39.0162 54.808C38.6642 55 38.2522 55.096 37.7802 55.096C37.2282 55.096 36.7282 54.956 36.2802 54.676C35.8322 54.388 35.4762 53.984 35.2122 53.464C34.9562 52.936 34.8282 52.328 34.8282 51.64C34.8282 50.952 34.9562 50.348 35.2122 49.828C35.4762 49.308 35.8322 48.908 36.2802 48.628C36.7282 48.348 37.2282 48.208 37.7802 48.208ZM39.8442 51.652C39.8442 51.14 39.7002 50.736 39.4122 50.44C39.1322 50.144 38.7882 49.996 38.3802 49.996C37.9722 49.996 37.6242 50.144 37.3362 50.44C37.0562 50.728 36.9162 51.128 36.9162 51.64C36.9162 52.152 37.0562 52.56 37.3362 52.864C37.6242 53.16 37.9722 53.308 38.3802 53.308C38.7882 53.308 39.1322 53.16 39.4122 52.864C39.7002 52.568 39.8442 52.164 39.8442 51.652ZM49.6927 51.544C49.6927 51.736 49.6807 51.936 49.6567 52.144H45.0127C45.0447 52.56 45.1767 52.88 45.4087 53.104C45.6487 53.32 45.9407 53.428 46.2847 53.428C46.7967 53.428 47.1527 53.212 47.3527 52.78H49.5367C49.4247 53.22 49.2207 53.616 48.9247 53.968C48.6367 54.32 48.2727 54.596 47.8327 54.796C47.3927 54.996 46.9007 55.096 46.3567 55.096C45.7007 55.096 45.1167 54.956 44.6047 54.676C44.0927 54.396 43.6927 53.996 43.4047 53.476C43.1167 52.956 42.9727 52.348 42.9727 51.652C42.9727 50.956 43.1127 50.348 43.3927 49.828C43.6807 49.308 44.0807 48.908 44.5927 48.628C45.1047 48.348 45.6927 48.208 46.3567 48.208C47.0047 48.208 47.5807 48.344 48.0847 48.616C48.5887 48.888 48.9807 49.276 49.2607 49.78C49.5487 50.284 49.6927 50.872 49.6927 51.544ZM47.5927 51.004C47.5927 50.652 47.4727 50.372 47.2327 50.164C46.9927 49.956 46.6927 49.852 46.3327 49.852C45.9887 49.852 45.6967 49.952 45.4567 50.152C45.2247 50.352 45.0807 50.636 45.0247 51.004H47.5927ZM54.5073 53.26V55H53.4633C52.7193 55 52.1393 54.82 51.7233 54.46C51.3073 54.092 51.0993 53.496 51.0993 52.672V50.008H50.2833V48.304H51.0993V46.672H53.1513V48.304H54.4953V50.008H53.1513V52.696C53.1513 52.896 53.1993 53.04 53.2953 53.128C53.3913 53.216 53.5513 53.26 53.7753 53.26H54.5073ZM57.7852 51.64C57.7852 50.952 57.9132 50.348 58.1692 49.828C58.4332 49.308 58.7892 48.908 59.2372 48.628C59.6852 48.348 60.1852 48.208 60.7372 48.208C61.2092 48.208 61.6212 48.304 61.9732 48.496C62.3332 48.688 62.6092 48.94 62.8012 49.252V48.304H64.8532V55H62.8012V54.052C62.6012 54.364 62.3212 54.616 61.9612 54.808C61.6092 55 61.1972 55.096 60.7252 55.096C60.1812 55.096 59.6852 54.956 59.2372 54.676C58.7892 54.388 58.4332 53.984 58.1692 53.464C57.9132 52.936 57.7852 52.328 57.7852 51.64ZM62.8012 51.652C62.8012 51.14 62.6572 50.736 62.3692 50.44C62.0892 50.144 61.7452 49.996 61.3372 49.996C60.9292 49.996 60.5812 50.144 60.2932 50.44C60.0132 50.728 59.8732 51.128 59.8732 51.64C59.8732 52.152 60.0132 52.56 60.2932 52.864C60.5812 53.16 60.9292 53.308 61.3372 53.308C61.7452 53.308 62.0892 53.16 62.3692 52.864C62.6572 52.568 62.8012 52.164 62.8012 51.652ZM70.0698 53.26V55H69.0258C68.2818 55 67.7018 54.82 67.2858 54.46C66.8698 54.092 66.6618 53.496 66.6618 52.672V50.008H65.8458V48.304H66.6618V46.672H68.7138V48.304H70.0578V50.008H68.7138V52.696C68.7138 52.896 68.7618 53.04 68.8578 53.128C68.9538 53.216 69.1138 53.26 69.3378 53.26H70.0698ZM77.8357 48.232C78.6197 48.232 79.2437 48.488 79.7077 49C80.1797 49.504 80.4157 50.2 80.4157 51.088V55H78.3757V51.364C78.3757 50.916 78.2597 50.568 78.0277 50.32C77.7957 50.072 77.4837 49.948 77.0917 49.948C76.6997 49.948 76.3877 50.072 76.1557 50.32C75.9237 50.568 75.8077 50.916 75.8077 51.364V55H73.7557V48.304H75.8077V49.192C76.0157 48.896 76.2957 48.664 76.6477 48.496C76.9997 48.32 77.3957 48.232 77.8357 48.232ZM88.1537 51.544C88.1537 51.736 88.1417 51.936 88.1177 52.144H83.4737C83.5057 52.56 83.6377 52.88 83.8697 53.104C84.1097 53.32 84.4017 53.428 84.7457 53.428C85.2577 53.428 85.6137 53.212 85.8137 52.78H87.9977C87.8857 53.22 87.6817 53.616 87.3857 53.968C87.0977 54.32 86.7337 54.596 86.2937 54.796C85.8537 54.996 85.3617 55.096 84.8177 55.096C84.1617 55.096 83.5777 54.956 83.0657 54.676C82.5537 54.396 82.1537 53.996 81.8657 53.476C81.5777 52.956 81.4337 52.348 81.4337 51.652C81.4337 50.956 81.5737 50.348 81.8537 49.828C82.1417 49.308 82.5417 48.908 83.0537 48.628C83.5657 48.348 84.1537 48.208 84.8177 48.208C85.4657 48.208 86.0417 48.344 86.5457 48.616C87.0497 48.888 87.4417 49.276 87.7217 49.78C88.0097 50.284 88.1537 50.872 88.1537 51.544ZM86.0537 51.004C86.0537 50.652 85.9337 50.372 85.6937 50.164C85.4537 49.956 85.1537 49.852 84.7937 49.852C84.4497 49.852 84.1577 49.952 83.9177 50.152C83.6857 50.352 83.5417 50.636 83.4857 51.004H86.0537ZM88.8282 51.652C88.8282 50.956 88.9682 50.348 89.2482 49.828C89.5362 49.308 89.9322 48.908 90.4362 48.628C90.9482 48.348 91.5322 48.208 92.1882 48.208C93.0282 48.208 93.7282 48.428 94.2882 48.868C94.8562 49.308 95.2282 49.928 95.4042 50.728H93.2202C93.0362 50.216 92.6802 49.96 92.1522 49.96C91.7762 49.96 91.4762 50.108 91.2522 50.404C91.0282 50.692 90.9162 51.108 90.9162 51.652C90.9162 52.196 91.0282 52.616 91.2522 52.912C91.4762 53.2 91.7762 53.344 92.1522 53.344C92.6802 53.344 93.0362 53.088 93.2202 52.576H95.4042C95.2282 53.36 94.8562 53.976 94.2882 54.424C93.7202 54.872 93.0202 55.096 92.1882 55.096C91.5322 55.096 90.9482 54.956 90.4362 54.676C89.9322 54.396 89.5362 53.996 89.2482 53.476C88.9682 52.956 88.8282 52.348 88.8282 51.652ZM103.125 48.232C103.909 48.232 104.533 48.488 104.997 49C105.469 49.504 105.705 50.2 105.705 51.088V55H103.665V51.364C103.665 50.916 103.549 50.568 103.317 50.32C103.085 50.072 102.773 49.948 102.381 49.948C101.989 49.948 101.677 50.072 101.445 50.32C101.213 50.568 101.097 50.916 101.097 51.364V55H99.0448V48.304H101.097V49.192C101.305 48.896 101.585 48.664 101.937 48.496C102.289 48.32 102.685 48.232 103.125 48.232ZM113.443 51.544C113.443 51.736 113.431 51.936 113.407 52.144H108.763C108.795 52.56 108.927 52.88 109.159 53.104C109.399 53.32 109.691 53.428 110.035 53.428C110.547 53.428 110.903 53.212 111.103 52.78H113.287C113.175 53.22 112.971 53.616 112.675 53.968C112.387 54.32 112.023 54.596 111.583 54.796C111.143 54.996 110.651 55.096 110.107 55.096C109.451 55.096 108.867 54.956 108.355 54.676C107.843 54.396 107.443 53.996 107.155 53.476C106.867 52.956 106.723 52.348 106.723 51.652C106.723 50.956 106.863 50.348 107.143 49.828C107.431 49.308 107.831 48.908 108.343 48.628C108.855 48.348 109.443 48.208 110.107 48.208C110.755 48.208 111.331 48.344 111.835 48.616C112.339 48.888 112.731 49.276 113.011 49.78C113.299 50.284 113.443 50.872 113.443 51.544ZM111.343 51.004C111.343 50.652 111.223 50.372 110.983 50.164C110.743 49.956 110.443 49.852 110.083 49.852C109.739 49.852 109.447 49.952 109.207 50.152C108.975 50.352 108.831 50.636 108.775 51.004H111.343ZM124.137 48.304L122.325 55H120.057L119.001 50.656L117.909 55H115.653L113.829 48.304H115.881L116.829 53.092L117.957 48.304H120.129L121.269 53.068L122.205 48.304H124.137ZM127.644 55.096C127.06 55.096 126.54 54.996 126.084 54.796C125.628 54.596 125.268 54.324 125.004 53.98C124.74 53.628 124.592 53.236 124.56 52.804H126.588C126.612 53.036 126.72 53.224 126.912 53.368C127.104 53.512 127.34 53.584 127.62 53.584C127.876 53.584 128.072 53.536 128.208 53.44C128.352 53.336 128.424 53.204 128.424 53.044C128.424 52.852 128.324 52.712 128.124 52.624C127.924 52.528 127.6 52.424 127.152 52.312C126.672 52.2 126.272 52.084 125.952 51.964C125.632 51.836 125.356 51.64 125.124 51.376C124.892 51.104 124.776 50.74 124.776 50.284C124.776 49.9 124.88 49.552 125.088 49.24C125.304 48.92 125.616 48.668 126.024 48.484C126.44 48.3 126.932 48.208 127.5 48.208C128.34 48.208 129 48.416 129.48 48.832C129.968 49.248 130.248 49.8 130.32 50.488H128.424C128.392 50.256 128.288 50.072 128.112 49.936C127.944 49.8 127.72 49.732 127.44 49.732C127.2 49.732 127.016 49.78 126.888 49.876C126.76 49.964 126.696 50.088 126.696 50.248C126.696 50.44 126.796 50.584 126.996 50.68C127.204 50.776 127.524 50.872 127.956 50.968C128.452 51.096 128.856 51.224 129.168 51.352C129.48 51.472 129.752 51.672 129.984 51.952C130.224 52.224 130.348 52.592 130.356 53.056C130.356 53.448 130.244 53.8 130.02 54.112C129.804 54.416 129.488 54.656 129.072 54.832C128.664 55.008 128.188 55.096 127.644 55.096ZM133.663 46.12V55H131.611V46.12H133.663ZM141.462 51.544C141.462 51.736 141.45 51.936 141.426 52.144H136.782C136.814 52.56 136.946 52.88 137.178 53.104C137.418 53.32 137.71 53.428 138.054 53.428C138.566 53.428 138.922 53.212 139.122 52.78H141.306C141.194 53.22 140.99 53.616 140.694 53.968C140.406 54.32 140.042 54.596 139.602 54.796C139.162 54.996 138.67 55.096 138.126 55.096C137.47 55.096 136.886 54.956 136.374 54.676C135.862 54.396 135.462 53.996 135.174 53.476C134.886 52.956 134.742 52.348 134.742 51.652C134.742 50.956 134.882 50.348 135.162 49.828C135.45 49.308 135.85 48.908 136.362 48.628C136.874 48.348 137.462 48.208 138.126 48.208C138.774 48.208 139.35 48.344 139.854 48.616C140.358 48.888 140.75 49.276 141.03 49.78C141.318 50.284 141.462 50.872 141.462 51.544ZM139.362 51.004C139.362 50.652 139.242 50.372 139.002 50.164C138.762 49.956 138.462 49.852 138.102 49.852C137.758 49.852 137.466 49.952 137.226 50.152C136.994 50.352 136.85 50.636 136.794 51.004H139.362ZM146.277 53.26V55H145.233C144.489 55 143.909 54.82 143.493 54.46C143.077 54.092 142.869 53.496 142.869 52.672V50.008H142.053V48.304H142.869V46.672H144.921V48.304H146.265V50.008H144.921V52.696C144.921 52.896 144.969 53.04 145.065 53.128C145.161 53.216 145.321 53.26 145.545 53.26H146.277ZM151.152 53.26V55H150.108C149.364 55 148.784 54.82 148.368 54.46C147.952 54.092 147.744 53.496 147.744 52.672V50.008H146.928V48.304H147.744V46.672H149.796V48.304H151.14V50.008H149.796V52.696C149.796 52.896 149.844 53.04 149.94 53.128C150.036 53.216 150.196 53.26 150.42 53.26H151.152ZM158.607 51.544C158.607 51.736 158.595 51.936 158.571 52.144H153.927C153.959 52.56 154.091 52.88 154.323 53.104C154.563 53.32 154.855 53.428 155.199 53.428C155.711 53.428 156.067 53.212 156.267 52.78H158.451C158.339 53.22 158.135 53.616 157.839 53.968C157.551 54.32 157.187 54.596 156.747 54.796C156.307 54.996 155.815 55.096 155.271 55.096C154.615 55.096 154.031 54.956 153.519 54.676C153.007 54.396 152.607 53.996 152.319 53.476C152.031 52.956 151.887 52.348 151.887 51.652C151.887 50.956 152.027 50.348 152.307 49.828C152.595 49.308 152.995 48.908 153.507 48.628C154.019 48.348 154.607 48.208 155.271 48.208C155.919 48.208 156.495 48.344 156.999 48.616C157.503 48.888 157.895 49.276 158.175 49.78C158.463 50.284 158.607 50.872 158.607 51.544ZM156.507 51.004C156.507 50.652 156.387 50.372 156.147 50.164C155.907 49.956 155.607 49.852 155.247 49.852C154.903 49.852 154.611 49.952 154.371 50.152C154.139 50.352 153.995 50.636 153.939 51.004H156.507ZM161.741 49.42C161.981 49.052 162.281 48.764 162.641 48.556C163.001 48.34 163.401 48.232 163.841 48.232V50.404H163.277C162.765 50.404 162.381 50.516 162.125 50.74C161.869 50.956 161.741 51.34 161.741 51.892V55H159.689V48.304H161.741V49.42Z" fill="#747475"/>
</g>
<g id="Form">
<rect id="Rectangle 36" x="197" y="34.5" width="153" height="17" fill="#F5F5F5"/>
<g id="Button">
<rect width="46" height="17" transform="translate(350 34.5)" fill="#747475"/>
<path id="Button_2" d="M367.704 43.064C367.805 43.08 367.897 43.1213 367.98 43.188C368.065 43.2547 368.132 43.3373 368.18 43.436C368.231 43.5347 368.256 43.64 368.256 43.752C368.256 43.8933 368.22 44.0213 368.148 44.136C368.076 44.248 367.971 44.3373 367.832 44.404C367.696 44.468 367.535 44.5 367.348 44.5H366.308V41.712H367.308C367.497 41.712 367.659 41.744 367.792 41.808C367.925 41.8693 368.025 41.9533 368.092 42.06C368.159 42.1667 368.192 42.2867 368.192 42.42C368.192 42.5853 368.147 42.7227 368.056 42.832C367.968 42.9387 367.851 43.016 367.704 43.064ZM366.672 42.916H367.284C367.455 42.916 367.587 42.876 367.68 42.796C367.773 42.716 367.82 42.6053 367.82 42.464C367.82 42.3227 367.773 42.212 367.68 42.132C367.587 42.052 367.452 42.012 367.276 42.012H366.672V42.916ZM367.316 44.2C367.497 44.2 367.639 44.1573 367.74 44.072C367.841 43.9867 367.892 43.868 367.892 43.716C367.892 43.5613 367.839 43.44 367.732 43.352C367.625 43.2613 367.483 43.216 367.304 43.216H366.672V44.2H367.316ZM370.705 42.308V44.5H370.341V44.176C370.272 44.288 370.174 44.376 370.049 44.44C369.926 44.5013 369.79 44.532 369.641 44.532C369.47 44.532 369.317 44.4973 369.181 44.428C369.045 44.356 368.937 44.2493 368.857 44.108C368.78 43.9667 368.741 43.7947 368.741 43.592V42.308H369.101V43.544C369.101 43.76 369.156 43.9267 369.265 44.044C369.374 44.1587 369.524 44.216 369.713 44.216C369.908 44.216 370.061 44.156 370.173 44.036C370.285 43.916 370.341 43.7413 370.341 43.512V42.308H370.705ZM371.764 42.608V43.9C371.764 44.0067 371.786 44.0827 371.832 44.128C371.877 44.1707 371.956 44.192 372.068 44.192H372.336V44.5H372.008C371.805 44.5 371.653 44.4533 371.552 44.36C371.45 44.2667 371.4 44.1133 371.4 43.9V42.608H371.116V42.308H371.4V41.756H371.764V42.308H372.336V42.608H371.764ZM373.221 42.608V43.9C373.221 44.0067 373.243 44.0827 373.289 44.128C373.334 44.1707 373.413 44.192 373.525 44.192H373.793V44.5H373.465C373.262 44.5 373.11 44.4533 373.009 44.36C372.907 44.2667 372.857 44.1133 372.857 43.9V42.608H372.573V42.308H372.857V41.756H373.221V42.308H373.793V42.608H373.221ZM375.19 44.536C374.984 44.536 374.798 44.4893 374.63 44.396C374.464 44.3027 374.334 44.1707 374.238 44C374.144 43.8267 374.098 43.6267 374.098 43.4C374.098 43.176 374.146 42.9787 374.242 42.808C374.34 42.6347 374.474 42.5027 374.642 42.412C374.81 42.3187 374.998 42.272 375.206 42.272C375.414 42.272 375.602 42.3187 375.77 42.412C375.938 42.5027 376.07 42.6333 376.166 42.804C376.264 42.9747 376.314 43.1733 376.314 43.4C376.314 43.6267 376.263 43.8267 376.162 44C376.063 44.1707 375.928 44.3027 375.758 44.396C375.587 44.4893 375.398 44.536 375.19 44.536ZM375.19 44.216C375.32 44.216 375.443 44.1853 375.558 44.124C375.672 44.0627 375.764 43.9707 375.834 43.848C375.906 43.7253 375.942 43.576 375.942 43.4C375.942 43.224 375.907 43.0747 375.838 42.952C375.768 42.8293 375.678 42.7387 375.566 42.68C375.454 42.6187 375.332 42.588 375.202 42.588C375.068 42.588 374.946 42.6187 374.834 42.68C374.724 42.7387 374.636 42.8293 374.57 42.952C374.503 43.0747 374.47 43.224 374.47 43.4C374.47 43.5787 374.502 43.7293 374.566 43.852C374.632 43.9747 374.72 44.0667 374.83 44.128C374.939 44.1867 375.059 44.216 375.19 44.216ZM377.86 42.268C378.127 42.268 378.343 42.3493 378.508 42.512C378.674 42.672 378.756 42.904 378.756 43.208V44.5H378.396V43.26C378.396 43.0413 378.342 42.8747 378.232 42.76C378.123 42.6427 377.974 42.584 377.784 42.584C377.592 42.584 377.439 42.644 377.324 42.764C377.212 42.884 377.156 43.0587 377.156 43.288V44.5H376.792V42.308H377.156V42.62C377.228 42.508 377.326 42.4213 377.448 42.36C377.574 42.2987 377.711 42.268 377.86 42.268Z" fill="white"/>
</g>
</g>
</g>
</svg>
