<svg width="236" height="107" viewBox="0 0 236 107" fill="none" xmlns="http://www.w3.org/2000/svg">
<g id="CTA">
<rect width="236" height="107" fill="#ECECEC"/>
<g id="CTA text">
<path id="Ullamcorper quis quis pretium" d="M59.0116 30.424V33.952C59.0116 34.448 59.1316 34.816 59.3716 35.056C59.6169 35.296 59.9556 35.416 60.3876 35.416C60.8143 35.416 61.1476 35.296 61.3876 35.056C61.6329 34.816 61.7556 34.448 61.7556 33.952V30.424H62.4836V33.944C62.4836 34.408 62.3903 34.8 62.2036 35.12C62.0169 35.4347 61.7636 35.6693 61.4436 35.824C61.1289 35.9787 60.7743 36.056 60.3796 36.056C59.9849 36.056 59.6276 35.9787 59.3076 35.824C58.9929 35.6693 58.7423 35.4347 58.5556 35.12C58.3743 34.8 58.2836 34.408 58.2836 33.944V30.424H59.0116ZM64.426 30.08V36H63.698V30.08H64.426ZM66.3948 30.08V36H65.6668V30.08H66.3948ZM67.3635 33.792C67.3635 33.344 67.4542 32.952 67.6355 32.616C67.8169 32.2747 68.0649 32.0107 68.3795 31.824C68.6995 31.6373 69.0542 31.544 69.4435 31.544C69.8275 31.544 70.1609 31.6267 70.4435 31.792C70.7262 31.9573 70.9369 32.1653 71.0755 32.416V31.616H71.8115V36H71.0755V35.184C70.9315 35.44 70.7155 35.6533 70.4275 35.824C70.1449 35.9893 69.8142 36.072 69.4355 36.072C69.0462 36.072 68.6942 35.976 68.3795 35.784C68.0649 35.592 67.8169 35.3227 67.6355 34.976C67.4542 34.6293 67.3635 34.2347 67.3635 33.792ZM71.0755 33.8C71.0755 33.4693 71.0089 33.1813 70.8755 32.936C70.7422 32.6907 70.5609 32.504 70.3315 32.376C70.1075 32.2427 69.8595 32.176 69.5875 32.176C69.3155 32.176 69.0675 32.24 68.8435 32.368C68.6195 32.496 68.4409 32.6827 68.3075 32.928C68.1742 33.1733 68.1075 33.4613 68.1075 33.792C68.1075 34.128 68.1742 34.4213 68.3075 34.672C68.4409 34.9173 68.6195 35.1067 68.8435 35.24C69.0675 35.368 69.3155 35.432 69.5875 35.432C69.8595 35.432 70.1075 35.368 70.3315 35.24C70.5609 35.1067 70.7422 34.9173 70.8755 34.672C71.0089 34.4213 71.0755 34.1307 71.0755 33.8ZM78.3138 31.536C78.6551 31.536 78.9591 31.608 79.2258 31.752C79.4924 31.8907 79.7031 32.1013 79.8578 32.384C80.0124 32.6667 80.0898 33.0107 80.0898 33.416V36H79.3698V33.52C79.3698 33.0827 79.2604 32.7493 79.0418 32.52C78.8284 32.2853 78.5378 32.168 78.1698 32.168C77.7911 32.168 77.4898 32.2907 77.2658 32.536C77.0418 32.776 76.9298 33.1253 76.9298 33.584V36H76.2098V33.52C76.2098 33.0827 76.1004 32.7493 75.8818 32.52C75.6684 32.2853 75.3778 32.168 75.0098 32.168C74.6311 32.168 74.3298 32.2907 74.1058 32.536C73.8818 32.776 73.7698 33.1253 73.7698 33.584V36H73.0418V31.616H73.7698V32.248C73.9138 32.0187 74.1058 31.8427 74.3458 31.72C74.5911 31.5973 74.8604 31.536 75.1538 31.536C75.5218 31.536 75.8471 31.6187 76.1298 31.784C76.4124 31.9493 76.6231 32.192 76.7618 32.512C76.8844 32.2027 77.0871 31.9627 77.3698 31.792C77.6524 31.6213 77.9671 31.536 78.3138 31.536ZM81.012 33.8C81.012 33.3467 81.1026 32.952 81.284 32.616C81.4653 32.2747 81.716 32.0107 82.036 31.824C82.3613 31.6373 82.732 31.544 83.148 31.544C83.6866 31.544 84.1293 31.6747 84.476 31.936C84.828 32.1973 85.06 32.56 85.172 33.024H84.388C84.3133 32.7573 84.1666 32.5467 83.948 32.392C83.7346 32.2373 83.468 32.16 83.148 32.16C82.732 32.16 82.396 32.304 82.14 32.592C81.884 32.8747 81.756 33.2773 81.756 33.8C81.756 34.328 81.884 34.736 82.14 35.024C82.396 35.312 82.732 35.456 83.148 35.456C83.468 35.456 83.7346 35.3813 83.948 35.232C84.1613 35.0827 84.308 34.8693 84.388 34.592H85.172C85.0546 35.04 84.82 35.4 84.468 35.672C84.116 35.9387 83.676 36.072 83.148 36.072C82.732 36.072 82.3613 35.9787 82.036 35.792C81.716 35.6053 81.4653 35.3413 81.284 35C81.1026 34.6587 81.012 34.2587 81.012 33.8ZM88.0553 36.072C87.6447 36.072 87.2713 35.9787 86.9353 35.792C86.6047 35.6053 86.3433 35.3413 86.1513 35C85.9647 34.6533 85.8713 34.2533 85.8713 33.8C85.8713 33.352 85.9673 32.9573 86.1593 32.616C86.3567 32.2693 86.6233 32.0053 86.9593 31.824C87.2953 31.6373 87.6713 31.544 88.0873 31.544C88.5033 31.544 88.8793 31.6373 89.2153 31.824C89.5513 32.0053 89.8153 32.2667 90.0073 32.608C90.2047 32.9493 90.3033 33.3467 90.3033 33.8C90.3033 34.2533 90.202 34.6533 89.9993 35C89.802 35.3413 89.5327 35.6053 89.1913 35.792C88.85 35.9787 88.4713 36.072 88.0553 36.072ZM88.0553 35.432C88.3167 35.432 88.562 35.3707 88.7913 35.248C89.0207 35.1253 89.2047 34.9413 89.3433 34.696C89.4873 34.4507 89.5593 34.152 89.5593 33.8C89.5593 33.448 89.49 33.1493 89.3513 32.904C89.2127 32.6587 89.0313 32.4773 88.8073 32.36C88.5833 32.2373 88.3407 32.176 88.0793 32.176C87.8127 32.176 87.5673 32.2373 87.3433 32.36C87.1247 32.4773 86.9487 32.6587 86.8153 32.904C86.682 33.1493 86.6153 33.448 86.6153 33.8C86.6153 34.1573 86.6793 34.4587 86.8073 34.704C86.9407 34.9493 87.1167 35.1333 87.3353 35.256C87.554 35.3733 87.794 35.432 88.0553 35.432ZM91.9885 32.328C92.1165 32.0773 92.2979 31.8827 92.5325 31.744C92.7725 31.6053 93.0632 31.536 93.4045 31.536V32.288H93.2125C92.3965 32.288 91.9885 32.7307 91.9885 33.616V36H91.2605V31.616H91.9885V32.328ZM94.9729 32.424C95.1169 32.1733 95.3302 31.9653 95.6129 31.8C95.9009 31.6293 96.2342 31.544 96.6129 31.544C97.0022 31.544 97.3542 31.6373 97.6689 31.824C97.9889 32.0107 98.2396 32.2747 98.4209 32.616C98.6022 32.952 98.6929 33.344 98.6929 33.792C98.6929 34.2347 98.6022 34.6293 98.4209 34.976C98.2396 35.3227 97.9889 35.592 97.6689 35.784C97.3542 35.976 97.0022 36.072 96.6129 36.072C96.2396 36.072 95.9089 35.9893 95.6209 35.824C95.3382 35.6533 95.1222 35.4427 94.9729 35.192V38.08H94.2449V31.616H94.9729V32.424ZM97.9489 33.792C97.9489 33.4613 97.8822 33.1733 97.7489 32.928C97.6156 32.6827 97.4342 32.496 97.2049 32.368C96.9809 32.24 96.7329 32.176 96.4609 32.176C96.1942 32.176 95.9462 32.2427 95.7169 32.376C95.4929 32.504 95.3116 32.6933 95.1729 32.944C95.0396 33.1893 94.9729 33.4747 94.9729 33.8C94.9729 34.1307 95.0396 34.4213 95.1729 34.672C95.3116 34.9173 95.4929 35.1067 95.7169 35.24C95.9462 35.368 96.1942 35.432 96.4609 35.432C96.7329 35.432 96.9809 35.368 97.2049 35.24C97.4342 35.1067 97.6156 34.9173 97.7489 34.672C97.8822 34.4213 97.9489 34.128 97.9489 33.792ZM103.651 33.64C103.651 33.7787 103.643 33.9253 103.627 34.08H100.123C100.15 34.512 100.296 34.8507 100.563 35.096C100.835 35.336 101.163 35.456 101.547 35.456C101.862 35.456 102.123 35.384 102.331 35.24C102.544 35.0907 102.694 34.8933 102.779 34.648H103.563C103.446 35.0693 103.211 35.4133 102.859 35.68C102.507 35.9413 102.07 36.072 101.547 36.072C101.131 36.072 100.758 35.9787 100.427 35.792C100.102 35.6053 99.8458 35.3413 99.6592 35C99.4725 34.6533 99.3792 34.2533 99.3792 33.8C99.3792 33.3467 99.4698 32.9493 99.6512 32.608C99.8325 32.2667 100.086 32.0053 100.411 31.824C100.742 31.6373 101.12 31.544 101.547 31.544C101.963 31.544 102.331 31.6347 102.651 31.816C102.971 31.9973 103.216 32.248 103.387 32.568C103.563 32.8827 103.651 33.24 103.651 33.64ZM102.899 33.488C102.899 33.2107 102.838 32.9733 102.715 32.776C102.592 32.5733 102.424 32.4213 102.211 32.32C102.003 32.2133 101.771 32.16 101.515 32.16C101.147 32.16 100.832 32.2773 100.571 32.512C100.315 32.7467 100.168 33.072 100.131 33.488H102.899ZM105.34 32.328C105.468 32.0773 105.649 31.8827 105.884 31.744C106.124 31.6053 106.415 31.536 106.756 31.536V32.288H106.564C105.748 32.288 105.34 32.7307 105.34 33.616V36H104.612V31.616H105.34V32.328ZM109.457 33.792C109.457 33.344 109.548 32.952 109.729 32.616C109.911 32.2747 110.159 32.0107 110.473 31.824C110.793 31.6373 111.151 31.544 111.545 31.544C111.924 31.544 112.255 31.6293 112.537 31.8C112.825 31.9653 113.036 32.1707 113.169 32.416V31.616H113.905V38.08H113.169V35.192C113.031 35.4373 112.817 35.6453 112.529 35.816C112.241 35.9867 111.905 36.072 111.521 36.072C111.137 36.072 110.788 35.976 110.473 35.784C110.159 35.592 109.911 35.3227 109.729 34.976C109.548 34.6293 109.457 34.2347 109.457 33.792ZM113.169 33.8C113.169 33.4693 113.103 33.1813 112.969 32.936C112.836 32.6907 112.655 32.504 112.425 32.376C112.201 32.2427 111.953 32.176 111.681 32.176C111.409 32.176 111.161 32.24 110.937 32.368C110.713 32.496 110.535 32.6827 110.401 32.928C110.268 33.1733 110.201 33.4613 110.201 33.792C110.201 34.128 110.268 34.4213 110.401 34.672C110.535 34.9173 110.713 35.1067 110.937 35.24C111.161 35.368 111.409 35.432 111.681 35.432C111.953 35.432 112.201 35.368 112.425 35.24C112.655 35.1067 112.836 34.9173 112.969 34.672C113.103 34.4213 113.169 34.1307 113.169 33.8ZM119.024 31.616V36H118.296V35.352C118.157 35.576 117.962 35.752 117.712 35.88C117.466 36.0027 117.194 36.064 116.896 36.064C116.554 36.064 116.248 35.9947 115.976 35.856C115.704 35.712 115.488 35.4987 115.328 35.216C115.173 34.9333 115.096 34.5893 115.096 34.184V31.616H115.816V34.088C115.816 34.52 115.925 34.8533 116.144 35.088C116.362 35.3173 116.661 35.432 117.04 35.432C117.429 35.432 117.736 35.312 117.96 35.072C118.184 34.832 118.296 34.4827 118.296 34.024V31.616H119.024ZM120.629 30.904C120.49 30.904 120.373 30.856 120.277 30.76C120.181 30.664 120.133 30.5467 120.133 30.408C120.133 30.2693 120.181 30.152 120.277 30.056C120.373 29.96 120.49 29.912 120.629 29.912C120.762 29.912 120.874 29.96 120.965 30.056C121.061 30.152 121.109 30.2693 121.109 30.408C121.109 30.5467 121.061 30.664 120.965 30.76C120.874 30.856 120.762 30.904 120.629 30.904ZM120.981 31.616V36H120.253V31.616H120.981ZM123.773 36.072C123.437 36.072 123.136 36.016 122.869 35.904C122.603 35.7867 122.392 35.6267 122.237 35.424C122.083 35.216 121.997 34.9787 121.981 34.712H122.733C122.755 34.9307 122.856 35.1093 123.037 35.248C123.224 35.3867 123.467 35.456 123.765 35.456C124.043 35.456 124.261 35.3947 124.421 35.272C124.581 35.1493 124.661 34.9947 124.661 34.808C124.661 34.616 124.576 34.4747 124.405 34.384C124.235 34.288 123.971 34.1947 123.613 34.104C123.288 34.0187 123.021 33.9333 122.813 33.848C122.611 33.7573 122.435 33.6267 122.285 33.456C122.141 33.28 122.069 33.0507 122.069 32.768C122.069 32.544 122.136 32.3387 122.269 32.152C122.403 31.9653 122.592 31.8187 122.837 31.712C123.083 31.6 123.363 31.544 123.677 31.544C124.163 31.544 124.555 31.6667 124.853 31.912C125.152 32.1573 125.312 32.4933 125.333 32.92H124.605C124.589 32.6907 124.496 32.5067 124.325 32.368C124.16 32.2293 123.936 32.16 123.653 32.16C123.392 32.16 123.184 32.216 123.029 32.328C122.875 32.44 122.797 32.5867 122.797 32.768C122.797 32.912 122.843 33.032 122.933 33.128C123.029 33.2187 123.147 33.2933 123.285 33.352C123.429 33.4053 123.627 33.4667 123.877 33.536C124.192 33.6213 124.448 33.7067 124.645 33.792C124.843 33.872 125.011 33.9947 125.149 34.16C125.293 34.3253 125.368 34.5413 125.373 34.808C125.373 35.048 125.307 35.264 125.173 35.456C125.04 35.648 124.851 35.8 124.605 35.912C124.365 36.0187 124.088 36.072 123.773 36.072ZM128.262 33.792C128.262 33.344 128.353 32.952 128.534 32.616C128.715 32.2747 128.963 32.0107 129.278 31.824C129.598 31.6373 129.955 31.544 130.35 31.544C130.729 31.544 131.059 31.6293 131.342 31.8C131.63 31.9653 131.841 32.1707 131.974 32.416V31.616H132.71V38.08H131.974V35.192C131.835 35.4373 131.622 35.6453 131.334 35.816C131.046 35.9867 130.71 36.072 130.326 36.072C129.942 36.072 129.593 35.976 129.278 35.784C128.963 35.592 128.715 35.3227 128.534 34.976C128.353 34.6293 128.262 34.2347 128.262 33.792ZM131.974 33.8C131.974 33.4693 131.907 33.1813 131.774 32.936C131.641 32.6907 131.459 32.504 131.23 32.376C131.006 32.2427 130.758 32.176 130.486 32.176C130.214 32.176 129.966 32.24 129.742 32.368C129.518 32.496 129.339 32.6827 129.206 32.928C129.073 33.1733 129.006 33.4613 129.006 33.792C129.006 34.128 129.073 34.4213 129.206 34.672C129.339 34.9173 129.518 35.1067 129.742 35.24C129.966 35.368 130.214 35.432 130.486 35.432C130.758 35.432 131.006 35.368 131.23 35.24C131.459 35.1067 131.641 34.9173 131.774 34.672C131.907 34.4213 131.974 34.1307 131.974 33.8ZM137.828 31.616V36H137.1V35.352C136.962 35.576 136.767 35.752 136.516 35.88C136.271 36.0027 135.999 36.064 135.7 36.064C135.359 36.064 135.052 35.9947 134.78 35.856C134.508 35.712 134.292 35.4987 134.132 35.216C133.978 34.9333 133.9 34.5893 133.9 34.184V31.616H134.62V34.088C134.62 34.52 134.73 34.8533 134.948 35.088C135.167 35.3173 135.466 35.432 135.844 35.432C136.234 35.432 136.54 35.312 136.764 35.072C136.988 34.832 137.1 34.4827 137.1 34.024V31.616H137.828ZM139.433 30.904C139.295 30.904 139.177 30.856 139.081 30.76C138.985 30.664 138.937 30.5467 138.937 30.408C138.937 30.2693 138.985 30.152 139.081 30.056C139.177 29.96 139.295 29.912 139.433 29.912C139.567 29.912 139.679 29.96 139.769 30.056C139.865 30.152 139.913 30.2693 139.913 30.408C139.913 30.5467 139.865 30.664 139.769 30.76C139.679 30.856 139.567 30.904 139.433 30.904ZM139.785 31.616V36H139.057V31.616H139.785ZM142.578 36.072C142.242 36.072 141.941 36.016 141.674 35.904C141.407 35.7867 141.197 35.6267 141.042 35.424C140.887 35.216 140.802 34.9787 140.786 34.712H141.538C141.559 34.9307 141.661 35.1093 141.842 35.248C142.029 35.3867 142.271 35.456 142.57 35.456C142.847 35.456 143.066 35.3947 143.226 35.272C143.386 35.1493 143.466 34.9947 143.466 34.808C143.466 34.616 143.381 34.4747 143.21 34.384C143.039 34.288 142.775 34.1947 142.418 34.104C142.093 34.0187 141.826 33.9333 141.618 33.848C141.415 33.7573 141.239 33.6267 141.09 33.456C140.946 33.28 140.874 33.0507 140.874 32.768C140.874 32.544 140.941 32.3387 141.074 32.152C141.207 31.9653 141.397 31.8187 141.642 31.712C141.887 31.6 142.167 31.544 142.482 31.544C142.967 31.544 143.359 31.6667 143.658 31.912C143.957 32.1573 144.117 32.4933 144.138 32.92H143.41C143.394 32.6907 143.301 32.5067 143.13 32.368C142.965 32.2293 142.741 32.16 142.458 32.16C142.197 32.16 141.989 32.216 141.834 32.328C141.679 32.44 141.602 32.5867 141.602 32.768C141.602 32.912 141.647 33.032 141.738 33.128C141.834 33.2187 141.951 33.2933 142.09 33.352C142.234 33.4053 142.431 33.4667 142.682 33.536C142.997 33.6213 143.253 33.7067 143.45 33.792C143.647 33.872 143.815 33.9947 143.954 34.16C144.098 34.3253 144.173 34.5413 144.178 34.808C144.178 35.048 144.111 35.264 143.978 35.456C143.845 35.648 143.655 35.8 143.41 35.912C143.17 36.0187 142.893 36.072 142.578 36.072ZM148.067 32.424C148.211 32.1733 148.424 31.9653 148.707 31.8C148.995 31.6293 149.328 31.544 149.707 31.544C150.096 31.544 150.448 31.6373 150.763 31.824C151.083 32.0107 151.333 32.2747 151.515 32.616C151.696 32.952 151.787 33.344 151.787 33.792C151.787 34.2347 151.696 34.6293 151.515 34.976C151.333 35.3227 151.083 35.592 150.763 35.784C150.448 35.976 150.096 36.072 149.707 36.072C149.333 36.072 149.003 35.9893 148.715 35.824C148.432 35.6533 148.216 35.4427 148.067 35.192V38.08H147.339V31.616H148.067V32.424ZM151.043 33.792C151.043 33.4613 150.976 33.1733 150.843 32.928C150.709 32.6827 150.528 32.496 150.299 32.368C150.075 32.24 149.827 32.176 149.555 32.176C149.288 32.176 149.04 32.2427 148.811 32.376C148.587 32.504 148.405 32.6933 148.267 32.944C148.133 33.1893 148.067 33.4747 148.067 33.8C148.067 34.1307 148.133 34.4213 148.267 34.672C148.405 34.9173 148.587 35.1067 148.811 35.24C149.04 35.368 149.288 35.432 149.555 35.432C149.827 35.432 150.075 35.368 150.299 35.24C150.528 35.1067 150.709 34.9173 150.843 34.672C150.976 34.4213 151.043 34.128 151.043 33.792ZM153.473 32.328C153.601 32.0773 153.782 31.8827 154.017 31.744C154.257 31.6053 154.548 31.536 154.889 31.536V32.288H154.697C153.881 32.288 153.473 32.7307 153.473 33.616V36H152.745V31.616H153.473V32.328ZM159.729 33.64C159.729 33.7787 159.721 33.9253 159.705 34.08H156.201C156.228 34.512 156.375 34.8507 156.641 35.096C156.913 35.336 157.241 35.456 157.625 35.456C157.94 35.456 158.201 35.384 158.409 35.24C158.623 35.0907 158.772 34.8933 158.857 34.648H159.641C159.524 35.0693 159.289 35.4133 158.937 35.68C158.585 35.9413 158.148 36.072 157.625 36.072C157.209 36.072 156.836 35.9787 156.505 35.792C156.18 35.6053 155.924 35.3413 155.737 35C155.551 34.6533 155.457 34.2533 155.457 33.8C155.457 33.3467 155.548 32.9493 155.729 32.608C155.911 32.2667 156.164 32.0053 156.489 31.824C156.82 31.6373 157.199 31.544 157.625 31.544C158.041 31.544 158.409 31.6347 158.729 31.816C159.049 31.9973 159.295 32.248 159.465 32.568C159.641 32.8827 159.729 33.24 159.729 33.64ZM158.977 33.488C158.977 33.2107 158.916 32.9733 158.793 32.776C158.671 32.5733 158.503 32.4213 158.289 32.32C158.081 32.2133 157.849 32.16 157.593 32.16C157.225 32.16 156.911 32.2773 156.649 32.512C156.393 32.7467 156.247 33.072 156.209 33.488H158.977ZM161.578 32.216V34.8C161.578 35.0133 161.624 35.1653 161.714 35.256C161.805 35.3413 161.962 35.384 162.186 35.384H162.722V36H162.066C161.661 36 161.357 35.9067 161.154 35.72C160.952 35.5333 160.85 35.2267 160.85 34.8V32.216H160.282V31.616H160.85V30.512H161.578V31.616H162.722V32.216H161.578ZM163.98 30.904C163.842 30.904 163.724 30.856 163.628 30.76C163.532 30.664 163.484 30.5467 163.484 30.408C163.484 30.2693 163.532 30.152 163.628 30.056C163.724 29.96 163.842 29.912 163.98 29.912C164.114 29.912 164.226 29.96 164.316 30.056C164.412 30.152 164.46 30.2693 164.46 30.408C164.46 30.5467 164.412 30.664 164.316 30.76C164.226 30.856 164.114 30.904 163.98 30.904ZM164.332 31.616V36H163.604V31.616H164.332ZM169.461 31.616V36H168.733V35.352C168.594 35.576 168.4 35.752 168.149 35.88C167.904 36.0027 167.632 36.064 167.333 36.064C166.992 36.064 166.685 35.9947 166.413 35.856C166.141 35.712 165.925 35.4987 165.765 35.216C165.61 34.9333 165.533 34.5893 165.533 34.184V31.616H166.253V34.088C166.253 34.52 166.362 34.8533 166.581 35.088C166.8 35.3173 167.098 35.432 167.477 35.432C167.866 35.432 168.173 35.312 168.397 35.072C168.621 34.832 168.733 34.4827 168.733 34.024V31.616H169.461ZM175.962 31.536C176.304 31.536 176.608 31.608 176.874 31.752C177.141 31.8907 177.352 32.1013 177.506 32.384C177.661 32.6667 177.738 33.0107 177.738 33.416V36H177.018V33.52C177.018 33.0827 176.909 32.7493 176.69 32.52C176.477 32.2853 176.186 32.168 175.818 32.168C175.44 32.168 175.138 32.2907 174.914 32.536C174.69 32.776 174.578 33.1253 174.578 33.584V36H173.858V33.52C173.858 33.0827 173.749 32.7493 173.53 32.52C173.317 32.2853 173.026 32.168 172.658 32.168C172.28 32.168 171.978 32.2907 171.754 32.536C171.53 32.776 171.418 33.1253 171.418 33.584V36H170.69V31.616H171.418V32.248C171.562 32.0187 171.754 31.8427 171.994 31.72C172.24 31.5973 172.509 31.536 172.802 31.536C173.17 31.536 173.496 31.6187 173.778 31.784C174.061 31.9493 174.272 32.192 174.41 32.512C174.533 32.2027 174.736 31.9627 175.018 31.792C175.301 31.6213 175.616 31.536 175.962 31.536Z" fill="#747475"/>
<path id="Eget at nec newsletter" d="M63.9181 46.15V47.9H66.2681V49.01H63.9181V50.86H66.5681V52H62.5181V45.01H66.5681V46.15H63.9181ZM70.0104 46.37C70.4237 46.37 70.7871 46.4533 71.1004 46.62C71.4137 46.78 71.6604 46.99 71.8404 47.25V46.46H73.2504V52.04C73.2504 52.5533 73.1471 53.01 72.9404 53.41C72.7337 53.8167 72.4237 54.1367 72.0104 54.37C71.5971 54.61 71.0971 54.73 70.5104 54.73C69.7237 54.73 69.0771 54.5467 68.5704 54.18C68.0704 53.8133 67.7871 53.3133 67.7204 52.68H69.1104C69.1837 52.9333 69.3404 53.1333 69.5804 53.28C69.8271 53.4333 70.1237 53.51 70.4704 53.51C70.8771 53.51 71.2071 53.3867 71.4604 53.14C71.7137 52.9 71.8404 52.5333 71.8404 52.04V51.18C71.6604 51.44 71.4104 51.6567 71.0904 51.83C70.7771 52.0033 70.4171 52.09 70.0104 52.09C69.5437 52.09 69.1171 51.97 68.7304 51.73C68.3437 51.49 68.0371 51.1533 67.8104 50.72C67.5904 50.28 67.4804 49.7767 67.4804 49.21C67.4804 48.65 67.5904 48.1533 67.8104 47.72C68.0371 47.2867 68.3404 46.9533 68.7204 46.72C69.1071 46.4867 69.5371 46.37 70.0104 46.37ZM71.8404 49.23C71.8404 48.89 71.7737 48.6 71.6404 48.36C71.5071 48.1133 71.3271 47.9267 71.1004 47.8C70.8737 47.6667 70.6304 47.6 70.3704 47.6C70.1104 47.6 69.8704 47.6633 69.6504 47.79C69.4304 47.9167 69.2504 48.1033 69.1104 48.35C68.9771 48.59 68.9104 48.8767 68.9104 49.21C68.9104 49.5433 68.9771 49.8367 69.1104 50.09C69.2504 50.3367 69.4304 50.5267 69.6504 50.66C69.8771 50.7933 70.1171 50.86 70.3704 50.86C70.6304 50.86 70.8737 50.7967 71.1004 50.67C71.3271 50.5367 71.5071 50.35 71.6404 50.11C71.7737 49.8633 71.8404 49.57 71.8404 49.23ZM79.7677 49.11C79.7677 49.31 79.7544 49.49 79.7277 49.65H75.6777C75.7111 50.05 75.8511 50.3633 76.0977 50.59C76.3444 50.8167 76.6477 50.93 77.0077 50.93C77.5277 50.93 77.8977 50.7067 78.1177 50.26H79.6277C79.4677 50.7933 79.1611 51.2333 78.7077 51.58C78.2544 51.92 77.6977 52.09 77.0377 52.09C76.5044 52.09 76.0244 51.9733 75.5977 51.74C75.1777 51.5 74.8477 51.1633 74.6077 50.73C74.3744 50.2967 74.2577 49.7967 74.2577 49.23C74.2577 48.6567 74.3744 48.1533 74.6077 47.72C74.8411 47.2867 75.1677 46.9533 75.5877 46.72C76.0077 46.4867 76.4911 46.37 77.0377 46.37C77.5644 46.37 78.0344 46.4833 78.4477 46.71C78.8677 46.9367 79.1911 47.26 79.4177 47.68C79.6511 48.0933 79.7677 48.57 79.7677 49.11ZM78.3177 48.71C78.3111 48.35 78.1811 48.0633 77.9277 47.85C77.6744 47.63 77.3644 47.52 76.9977 47.52C76.6511 47.52 76.3577 47.6267 76.1177 47.84C75.8844 48.0467 75.7411 48.3367 75.6877 48.71H78.3177ZM82.4196 47.61V50.29C82.4196 50.4767 82.4629 50.6133 82.5496 50.7C82.6429 50.78 82.7963 50.82 83.0096 50.82H83.6596V52H82.7796C81.5996 52 81.0096 51.4267 81.0096 50.28V47.61H80.3496V46.46H81.0096V45.09H82.4196V46.46H83.6596V47.61H82.4196ZM86.6894 49.21C86.6894 48.65 86.7994 48.1533 87.0194 47.72C87.246 47.2867 87.5494 46.9533 87.9294 46.72C88.316 46.4867 88.746 46.37 89.2194 46.37C89.6327 46.37 89.9927 46.4533 90.2994 46.62C90.6127 46.7867 90.8627 46.9967 91.0494 47.25V46.46H92.4594V52H91.0494V51.19C90.8694 51.45 90.6194 51.6667 90.2994 51.84C89.986 52.0067 89.6227 52.09 89.2094 52.09C88.7427 52.09 88.316 51.97 87.9294 51.73C87.5494 51.49 87.246 51.1533 87.0194 50.72C86.7994 50.28 86.6894 49.7767 86.6894 49.21ZM91.0494 49.23C91.0494 48.89 90.9827 48.6 90.8494 48.36C90.716 48.1133 90.536 47.9267 90.3094 47.8C90.0827 47.6667 89.8394 47.6 89.5794 47.6C89.3194 47.6 89.0794 47.6633 88.8594 47.79C88.6394 47.9167 88.4594 48.1033 88.3194 48.35C88.186 48.59 88.1194 48.8767 88.1194 49.21C88.1194 49.5433 88.186 49.8367 88.3194 50.09C88.4594 50.3367 88.6394 50.5267 88.8594 50.66C89.086 50.7933 89.326 50.86 89.5794 50.86C89.8394 50.86 90.0827 50.7967 90.3094 50.67C90.536 50.5367 90.716 50.35 90.8494 50.11C90.9827 49.8633 91.0494 49.57 91.0494 49.23ZM95.4567 47.61V50.29C95.4567 50.4767 95.5001 50.6133 95.5867 50.7C95.6801 50.78 95.8334 50.82 96.0467 50.82H96.6967V52H95.8167C94.6367 52 94.0467 51.4267 94.0467 50.28V47.61H93.3867V46.46H94.0467V45.09H95.4567V46.46H96.6967V47.61H95.4567ZM103.156 46.38C103.816 46.38 104.35 46.59 104.756 47.01C105.163 47.4233 105.366 48.0033 105.366 48.75V52H103.966V48.94C103.966 48.5 103.856 48.1633 103.636 47.93C103.416 47.69 103.116 47.57 102.736 47.57C102.35 47.57 102.043 47.69 101.816 47.93C101.596 48.1633 101.486 48.5 101.486 48.94V52H100.086V46.46H101.486V47.15C101.673 46.91 101.91 46.7233 102.196 46.59C102.49 46.45 102.81 46.38 103.156 46.38ZM111.848 49.11C111.848 49.31 111.834 49.49 111.808 49.65H107.758C107.791 50.05 107.931 50.3633 108.178 50.59C108.424 50.8167 108.728 50.93 109.088 50.93C109.608 50.93 109.978 50.7067 110.198 50.26H111.708C111.548 50.7933 111.241 51.2333 110.788 51.58C110.334 51.92 109.778 52.09 109.118 52.09C108.584 52.09 108.104 51.9733 107.678 51.74C107.258 51.5 106.928 51.1633 106.688 50.73C106.454 50.2967 106.338 49.7967 106.338 49.23C106.338 48.6567 106.454 48.1533 106.688 47.72C106.921 47.2867 107.248 46.9533 107.668 46.72C108.088 46.4867 108.571 46.37 109.118 46.37C109.644 46.37 110.114 46.4833 110.528 46.71C110.948 46.9367 111.271 47.26 111.498 47.68C111.731 48.0933 111.848 48.57 111.848 49.11ZM110.398 48.71C110.391 48.35 110.261 48.0633 110.008 47.85C109.754 47.63 109.444 47.52 109.078 47.52C108.731 47.52 108.438 47.6267 108.198 47.84C107.964 48.0467 107.821 48.3367 107.768 48.71H110.398ZM112.51 49.23C112.51 48.6567 112.626 48.1567 112.86 47.73C113.093 47.2967 113.416 46.9633 113.83 46.73C114.243 46.49 114.716 46.37 115.25 46.37C115.936 46.37 116.503 46.5433 116.95 46.89C117.403 47.23 117.706 47.71 117.86 48.33H116.35C116.27 48.09 116.133 47.9033 115.94 47.77C115.753 47.63 115.52 47.56 115.24 47.56C114.84 47.56 114.523 47.7067 114.29 48C114.056 48.2867 113.94 48.6967 113.94 49.23C113.94 49.7567 114.056 50.1667 114.29 50.46C114.523 50.7467 114.84 50.89 115.24 50.89C115.806 50.89 116.176 50.6367 116.35 50.13H117.86C117.706 50.73 117.403 51.2067 116.95 51.56C116.496 51.9133 115.93 52.09 115.25 52.09C114.716 52.09 114.243 51.9733 113.83 51.74C113.416 51.5 113.093 51.1667 112.86 50.74C112.626 50.3067 112.51 49.8033 112.51 49.23ZM124.338 46.38C124.998 46.38 125.531 46.59 125.938 47.01C126.345 47.4233 126.548 48.0033 126.548 48.75V52H125.148V48.94C125.148 48.5 125.038 48.1633 124.818 47.93C124.598 47.69 124.298 47.57 123.918 47.57C123.531 47.57 123.225 47.69 122.998 47.93C122.778 48.1633 122.668 48.5 122.668 48.94V52H121.268V46.46H122.668V47.15C122.855 46.91 123.091 46.7233 123.378 46.59C123.671 46.45 123.991 46.38 124.338 46.38ZM133.029 49.11C133.029 49.31 133.016 49.49 132.989 49.65H128.939C128.973 50.05 129.113 50.3633 129.359 50.59C129.606 50.8167 129.909 50.93 130.269 50.93C130.789 50.93 131.159 50.7067 131.379 50.26H132.889C132.729 50.7933 132.423 51.2333 131.969 51.58C131.516 51.92 130.959 52.09 130.299 52.09C129.766 52.09 129.286 51.9733 128.859 51.74C128.439 51.5 128.109 51.1633 127.869 50.73C127.636 50.2967 127.519 49.7967 127.519 49.23C127.519 48.6567 127.636 48.1533 127.869 47.72C128.103 47.2867 128.429 46.9533 128.849 46.72C129.269 46.4867 129.753 46.37 130.299 46.37C130.826 46.37 131.296 46.4833 131.709 46.71C132.129 46.9367 132.453 47.26 132.679 47.68C132.913 48.0933 133.029 48.57 133.029 49.11ZM131.579 48.71C131.573 48.35 131.443 48.0633 131.189 47.85C130.936 47.63 130.626 47.52 130.259 47.52C129.913 47.52 129.619 47.6267 129.379 47.84C129.146 48.0467 129.003 48.3367 128.949 48.71H131.579ZM141.731 46.46L140.111 52H138.601L137.591 48.13L136.581 52H135.061L133.431 46.46H134.851L135.831 50.68L136.891 46.46H138.371L139.411 50.67L140.391 46.46H141.731ZM144.609 52.09C144.155 52.09 143.749 52.01 143.389 51.85C143.029 51.6833 142.742 51.46 142.529 51.18C142.322 50.9 142.209 50.59 142.189 50.25H143.599C143.625 50.4633 143.729 50.64 143.909 50.78C144.095 50.92 144.325 50.99 144.599 50.99C144.865 50.99 145.072 50.9367 145.219 50.83C145.372 50.7233 145.449 50.5867 145.449 50.42C145.449 50.24 145.355 50.1067 145.169 50.02C144.989 49.9267 144.699 49.8267 144.299 49.72C143.885 49.62 143.545 49.5167 143.279 49.41C143.019 49.3033 142.792 49.14 142.599 48.92C142.412 48.7 142.319 48.4033 142.319 48.03C142.319 47.7233 142.405 47.4433 142.579 47.19C142.759 46.9367 143.012 46.7367 143.339 46.59C143.672 46.4433 144.062 46.37 144.509 46.37C145.169 46.37 145.695 46.5367 146.089 46.87C146.482 47.1967 146.699 47.64 146.739 48.2H145.399C145.379 47.98 145.285 47.8067 145.119 47.68C144.959 47.5467 144.742 47.48 144.469 47.48C144.215 47.48 144.019 47.5267 143.879 47.62C143.745 47.7133 143.679 47.8433 143.679 48.01C143.679 48.1967 143.772 48.34 143.959 48.44C144.145 48.5333 144.435 48.63 144.829 48.73C145.229 48.83 145.559 48.9333 145.819 49.04C146.079 49.1467 146.302 49.3133 146.489 49.54C146.682 49.76 146.782 50.0533 146.789 50.42C146.789 50.74 146.699 51.0267 146.519 51.28C146.345 51.5333 146.092 51.7333 145.759 51.88C145.432 52.02 145.049 52.09 144.609 52.09ZM149.338 44.6V52H147.938V44.6H149.338ZM155.871 49.11C155.871 49.31 155.858 49.49 155.831 49.65H151.781C151.815 50.05 151.955 50.3633 152.201 50.59C152.448 50.8167 152.751 50.93 153.111 50.93C153.631 50.93 154.001 50.7067 154.221 50.26H155.731C155.571 50.7933 155.265 51.2333 154.811 51.58C154.358 51.92 153.801 52.09 153.141 52.09C152.608 52.09 152.128 51.9733 151.701 51.74C151.281 51.5 150.951 51.1633 150.711 50.73C150.478 50.2967 150.361 49.7967 150.361 49.23C150.361 48.6567 150.478 48.1533 150.711 47.72C150.945 47.2867 151.271 46.9533 151.691 46.72C152.111 46.4867 152.595 46.37 153.141 46.37C153.668 46.37 154.138 46.4833 154.551 46.71C154.971 46.9367 155.295 47.26 155.521 47.68C155.755 48.0933 155.871 48.57 155.871 49.11ZM154.421 48.71C154.415 48.35 154.285 48.0633 154.031 47.85C153.778 47.63 153.468 47.52 153.101 47.52C152.755 47.52 152.461 47.6267 152.221 47.84C151.988 48.0467 151.845 48.3367 151.791 48.71H154.421ZM158.523 47.61V50.29C158.523 50.4767 158.566 50.6133 158.653 50.7C158.746 50.78 158.9 50.82 159.113 50.82H159.763V52H158.883C157.703 52 157.113 51.4267 157.113 50.28V47.61H156.453V46.46H157.113V45.09H158.523V46.46H159.763V47.61H158.523ZM162.4 47.61V50.29C162.4 50.4767 162.443 50.6133 162.53 50.7C162.623 50.78 162.777 50.82 162.99 50.82H163.64V52H162.76C161.58 52 160.99 51.4267 160.99 50.28V47.61H160.33V46.46H160.99V45.09H162.4V46.46H163.64V47.61H162.4ZM169.797 49.11C169.797 49.31 169.784 49.49 169.757 49.65H165.707C165.74 50.05 165.88 50.3633 166.127 50.59C166.374 50.8167 166.677 50.93 167.037 50.93C167.557 50.93 167.927 50.7067 168.147 50.26H169.657C169.497 50.7933 169.19 51.2333 168.737 51.58C168.284 51.92 167.727 52.09 167.067 52.09C166.534 52.09 166.054 51.9733 165.627 51.74C165.207 51.5 164.877 51.1633 164.637 50.73C164.404 50.2967 164.287 49.7967 164.287 49.23C164.287 48.6567 164.404 48.1533 164.637 47.72C164.87 47.2867 165.197 46.9533 165.617 46.72C166.037 46.4867 166.52 46.37 167.067 46.37C167.594 46.37 168.064 46.4833 168.477 46.71C168.897 46.9367 169.22 47.26 169.447 47.68C169.68 48.0933 169.797 48.57 169.797 49.11ZM168.347 48.71C168.34 48.35 168.21 48.0633 167.957 47.85C167.704 47.63 167.394 47.52 167.027 47.52C166.68 47.52 166.387 47.6267 166.147 47.84C165.914 48.0467 165.77 48.3367 165.717 48.71H168.347ZM172.219 47.32C172.399 47.0267 172.632 46.7967 172.919 46.63C173.212 46.4633 173.546 46.38 173.919 46.38V47.85H173.549C173.109 47.85 172.776 47.9533 172.549 48.16C172.329 48.3667 172.219 48.7267 172.219 49.24V52H170.819V46.46H172.219V47.32Z" fill="#747475"/>
</g>
<g id="Form">
<rect id="Rectangle 36" x="16" y="62" width="143" height="17" fill="#F5F5F5"/>
<g id="Button">
<rect width="61" height="17" transform="translate(159 62)" fill="#747475"/>
<path id="Button_2" d="M184.204 70.564C184.305 70.58 184.397 70.6213 184.48 70.688C184.565 70.7547 184.632 70.8373 184.68 70.936C184.731 71.0347 184.756 71.14 184.756 71.252C184.756 71.3933 184.72 71.5213 184.648 71.636C184.576 71.748 184.471 71.8373 184.332 71.904C184.196 71.968 184.035 72 183.848 72H182.808V69.212H183.808C183.997 69.212 184.159 69.244 184.292 69.308C184.425 69.3693 184.525 69.4533 184.592 69.56C184.659 69.6667 184.692 69.7867 184.692 69.92C184.692 70.0853 184.647 70.2227 184.556 70.332C184.468 70.4387 184.351 70.516 184.204 70.564ZM183.172 70.416H183.784C183.955 70.416 184.087 70.376 184.18 70.296C184.273 70.216 184.32 70.1053 184.32 69.964C184.32 69.8227 184.273 69.712 184.18 69.632C184.087 69.552 183.952 69.512 183.776 69.512H183.172V70.416ZM183.816 71.7C183.997 71.7 184.139 71.6573 184.24 71.572C184.341 71.4867 184.392 71.368 184.392 71.216C184.392 71.0613 184.339 70.94 184.232 70.852C184.125 70.7613 183.983 70.716 183.804 70.716H183.172V71.7H183.816ZM187.205 69.808V72H186.841V71.676C186.772 71.788 186.674 71.876 186.549 71.94C186.426 72.0013 186.29 72.032 186.141 72.032C185.97 72.032 185.817 71.9973 185.681 71.928C185.545 71.856 185.437 71.7493 185.357 71.608C185.28 71.4667 185.241 71.2947 185.241 71.092V69.808H185.601V71.044C185.601 71.26 185.656 71.4267 185.765 71.544C185.874 71.6587 186.024 71.716 186.213 71.716C186.408 71.716 186.561 71.656 186.673 71.536C186.785 71.416 186.841 71.2413 186.841 71.012V69.808H187.205ZM188.264 70.108V71.4C188.264 71.5067 188.286 71.5827 188.332 71.628C188.377 71.6707 188.456 71.692 188.568 71.692H188.836V72H188.508C188.305 72 188.153 71.9533 188.052 71.86C187.95 71.7667 187.9 71.6133 187.9 71.4V70.108H187.616V69.808H187.9V69.256H188.264V69.808H188.836V70.108H188.264ZM189.721 70.108V71.4C189.721 71.5067 189.743 71.5827 189.789 71.628C189.834 71.6707 189.913 71.692 190.025 71.692H190.293V72H189.965C189.762 72 189.61 71.9533 189.509 71.86C189.407 71.7667 189.357 71.6133 189.357 71.4V70.108H189.073V69.808H189.357V69.256H189.721V69.808H190.293V70.108H189.721ZM191.69 72.036C191.484 72.036 191.298 71.9893 191.13 71.896C190.964 71.8027 190.834 71.6707 190.738 71.5C190.644 71.3267 190.598 71.1267 190.598 70.9C190.598 70.676 190.646 70.4787 190.742 70.308C190.84 70.1347 190.974 70.0027 191.142 69.912C191.31 69.8187 191.498 69.772 191.706 69.772C191.914 69.772 192.102 69.8187 192.27 69.912C192.438 70.0027 192.57 70.1333 192.666 70.304C192.764 70.4747 192.814 70.6733 192.814 70.9C192.814 71.1267 192.763 71.3267 192.662 71.5C192.563 71.6707 192.428 71.8027 192.258 71.896C192.087 71.9893 191.898 72.036 191.69 72.036ZM191.69 71.716C191.82 71.716 191.943 71.6853 192.058 71.624C192.172 71.5627 192.264 71.4707 192.334 71.348C192.406 71.2253 192.442 71.076 192.442 70.9C192.442 70.724 192.407 70.5747 192.338 70.452C192.268 70.3293 192.178 70.2387 192.066 70.18C191.954 70.1187 191.832 70.088 191.702 70.088C191.568 70.088 191.446 70.1187 191.334 70.18C191.224 70.2387 191.136 70.3293 191.07 70.452C191.003 70.5747 190.97 70.724 190.97 70.9C190.97 71.0787 191.002 71.2293 191.066 71.352C191.132 71.4747 191.22 71.5667 191.33 71.628C191.439 71.6867 191.559 71.716 191.69 71.716ZM194.36 69.768C194.627 69.768 194.843 69.8493 195.008 70.012C195.174 70.172 195.256 70.404 195.256 70.708V72H194.896V70.76C194.896 70.5413 194.842 70.3747 194.732 70.26C194.623 70.1427 194.474 70.084 194.284 70.084C194.092 70.084 193.939 70.144 193.824 70.264C193.712 70.384 193.656 70.5587 193.656 70.788V72H193.292V69.808H193.656V70.12C193.728 70.008 193.826 69.9213 193.948 69.86C194.074 69.7987 194.211 69.768 194.36 69.768Z" fill="white"/>
</g>
</g>
</g>
</svg>
